<svg xmlns="http://www.w3.org/2000/svg" xml:space="preserve" id="Capa_1" width="800" height="800" version="1.1" viewBox="0 0 445.049 445.049"><style id="style1">@media (prefers-color-scheme:dark){path{fill:#9fb3ef}}</style><path id="XMLID_176_" d="M56.507 73.548a8.999 8.999 0 0 1 .433-12.72l26.938-25.166a9.001 9.001 0 0 1 15.144 6.576v70.863c0 4.971-4.029 9-9 9s-9-4.029-9-9V62.963L69.228 73.98a8.999 8.999 0 0 1-12.721-.432zM437.533 9v170.012c0 4.971-4.029 9-9 9s-9-4.029-9-9v-23.673h-119.34v119.338h25.329c4.971 0 9 4.029 9 9s-4.029 9-9 9h-25.329v119.338h25.329c4.971 0 9 4.029 9 9s-4.029 9-9 9h-34.138l-.191.002-.191-.002H154.048a8.108 8.108 0 0 1-.382 0H16.546a9 9 0 0 1-9-8.999l-.01-136.736a9.277 9.277 0 0 1 0-1.206l-.01-136.31a10.06 10.06 0 0 1 0-.853l-.01-136.91c0-2.388.948-4.677 2.636-6.364A8.996 8.996 0 0 1 16.516 0h412.017a9 9 0 0 1 9 9zM144.857 292.677H25.537l.009 119.338h119.312V292.677zm0-137.338H25.527l.008 119.338h119.322V155.339zm0-137.339H25.517l.009 119.339h119.332V18zm137.336 274.677H162.857v119.338h119.336V292.677zm0-137.338H162.857v119.338h119.336V155.339zm0-137.339H162.857v119.339h119.336V18zm137.34 0h-119.34v119.339h119.339V18zm15.845 213.685a9.002 9.002 0 0 1 2.154 5.843v198.521a9 9 0 0 1-9 9H371.8a9 9 0 0 1-9-9V237.527c0-2.142.764-4.214 2.154-5.843l28.366-33.234a8.999 8.999 0 0 1 13.692 0l28.366 33.235zm-15.845 176.341H380.8v19.022h38.733v-19.022zm0-146.788H380.8v128.788h38.733V261.238zm0-20.392-19.367-22.689-19.366 22.689v2.393h38.733v-2.393zm-180.735-2.151H189.91c-4.971 0-9 4.029-9 9s4.029 9 9 9h48.888c13.974 0 25.342-11.369 25.342-25.344a25.234 25.234 0 0 0-5.988-16.344 25.234 25.234 0 0 0 5.988-16.344c0-13.975-11.369-25.344-25.342-25.344H189.91c-4.971 0-9 4.029-9 9s4.029 9 9 9h48.888c4.048 0 7.342 3.295 7.342 7.345 0 4.049-3.294 7.343-7.342 7.343h-28.77c-4.971 0-9 4.029-9 9s4.029 9 9 9h28.77c4.048 0 7.342 3.295 7.342 7.345 0 4.049-3.294 7.343-7.342 7.343z" style="fill:#23dcd8;fill-opacity:1"/></svg>